<svg width="25" height="27" viewBox="0 0 25 27" fill="none" xmlns="http://www.w3.org/2000/svg">
<g clip-path="url(#clip0_1483_395)">
<path d="M24.21 1.59195C24.075 1.45225 23.9045 1.35552 23.7185 1.31315C23.5325 1.27078 23.3388 1.28451 23.16 1.35275L1.16 9.67275C0.970269 9.74759 0.806921 9.88069 0.691652 10.0544C0.576383 10.2281 0.514648 10.4341 0.514648 10.6451C0.514648 10.8562 0.576383 11.0622 0.691652 11.2359C0.806921 11.4096 0.970269 11.5427 1.16 11.6175L10.76 15.6111L14.6 25.5951C14.6721 25.7838 14.7958 25.9464 14.9557 26.0628C15.1157 26.1792 15.3049 26.2444 15.5 26.2503C15.7021 26.246 15.8982 26.1781 16.0624 26.0556C16.2266 25.9331 16.3513 25.7617 16.42 25.5639L24.42 2.68395C24.4881 2.49995 24.5046 2.29959 24.4674 2.10625C24.4302 1.91291 24.3409 1.73454 24.21 1.59195ZM15.5 22.2983L12.71 15.0183L17.5 10.0367L16.09 8.57035L11.26 13.5935L4.3 10.6503L21.83 4.06715L15.5 22.2983Z" fill="#23A6F0"/>
</g>
<defs>
<clipPath id="clip0_1483_395">
<rect width="24" height="26" fill="white" transform="translate(0.5 0.25)"/>
</clipPath>
</defs>
</svg>
