<svg width="32" height="31" viewBox="0 0 32 31" fill="none" xmlns="http://www.w3.org/2000/svg">
<g clip-path="url(#clip0_1483_14)" filter="url(#filter0_d_1483_14)">
<path d="M12 22.4002C12.8837 22.4002 13.6 21.6838 13.6 20.8002C13.6 19.9165 12.8837 19.2002 12 19.2002C11.1163 19.2002 10.4 19.9165 10.4 20.8002C10.4 21.6838 11.1163 22.4002 12 22.4002Z" fill="white"/>
<path d="M23.2 22.4002C24.0837 22.4002 24.8 21.6838 24.8 20.8002C24.8 19.9165 24.0837 19.2002 23.2 19.2002C22.3163 19.2002 21.6 19.9165 21.6 20.8002C21.6 21.6838 22.3163 22.4002 23.2 22.4002Z" fill="white"/>
<path d="M26.4 4.00016H8.656L8 0.640163C7.9626 0.456742 7.86206 0.292245 7.71589 0.175305C7.56971 0.0583653 7.38716 -0.00361159 7.2 0.000162751H4V1.60016H6.544L9.6 16.9602C9.6374 17.1436 9.73794 17.3081 9.88411 17.425C10.0303 17.542 10.2128 17.6039 10.4 17.6002H24.8V16.0002H11.056L10.4 12.8002H24.8C24.9849 12.8047 25.1657 12.745 25.3116 12.6312C25.4574 12.5174 25.5594 12.3566 25.6 12.1762L27.2 4.97616C27.2268 4.85746 27.2262 4.73421 27.1982 4.61579C27.1702 4.49737 27.1155 4.38689 27.0384 4.29278C26.9612 4.19867 26.8636 4.12339 26.753 4.07268C26.6424 4.02198 26.5217 3.99717 26.4 4.00016ZM24.16 11.2002H10.096L8.976 5.60016H25.4L24.16 11.2002Z" fill="white"/>
</g>
<defs>
<filter id="filter0_d_1483_14" x="0" y="0" width="32" height="30.4002" filterUnits="userSpaceOnUse" color-interpolation-filters="sRGB">
<feFlood flood-opacity="0" result="BackgroundImageFix"/>
<feColorMatrix in="SourceAlpha" type="matrix" values="0 0 0 0 0 0 0 0 0 0 0 0 0 0 0 0 0 0 127 0" result="hardAlpha"/>
<feOffset dy="4"/>
<feGaussianBlur stdDeviation="2"/>
<feComposite in2="hardAlpha" operator="out"/>
<feColorMatrix type="matrix" values="0 0 0 0 0 0 0 0 0 0 0 0 0 0 0 0 0 0 0.25 0"/>
<feBlend mode="normal" in2="BackgroundImageFix" result="effect1_dropShadow_1483_14"/>
<feBlend mode="normal" in="SourceGraphic" in2="effect1_dropShadow_1483_14" result="shape"/>
</filter>
<clipPath id="clip0_1483_14">
<rect width="24" height="22.4002" fill="white" transform="translate(4)"/>
</clipPath>
</defs>
</svg>
